<svg width="176" height="47" viewBox="0 0 176 47" fill="none" xmlns="http://www.w3.org/2000/svg">
<g clip-path="url(#clip0_7_6)">
<path d="M105.941 40.2081H110.883V41.0407H108.869V46.8861H107.963V41.0407H105.941V40.2081Z" fill="#001954"/>
<path d="M111.797 46.8861V40.2081H115.885V41.0407H112.711V43.1264H115.578V43.9327H112.711V46.0448H115.885V46.8861H111.797Z" fill="#001954"/>
<path d="M116.8 43.5559C116.8 41.4964 118.11 40.1029 120.027 40.1029C121.539 40.1029 122.691 40.9968 122.946 42.364H121.97C121.724 41.4964 120.968 40.9705 120 40.9705C118.646 40.9705 117.758 41.9871 117.758 43.5471C117.758 45.107 118.646 46.1236 120 46.1236C120.985 46.1236 121.759 45.5978 122.014 44.774H122.981C122.691 46.1061 121.495 46.9912 119.992 46.9912C118.084 46.9912 116.818 45.6241 116.818 43.5559H116.8Z" fill="#001954"/>
<path d="M124.08 46.8861V40.2081H124.986V43.0826H128.301V40.2081H129.206V46.8861H128.301V43.9239H124.986V46.8861H124.08Z" fill="#001954"/>
<path d="M130.771 46.8861V40.2081H131.677L135.106 45.3699V40.2081H136.012V46.8861H135.106L131.677 41.7242V46.8861H130.771Z" fill="#001954"/>
<path d="M140.373 47C138.482 47 137.163 45.5803 137.163 43.5471C137.163 41.5139 138.491 40.0942 140.381 40.0942C142.272 40.0942 143.608 41.5139 143.608 43.5471C143.608 45.5803 142.272 47 140.373 47ZM140.381 40.9706C139.019 40.9706 138.122 41.9959 138.122 43.5471C138.122 45.0983 139.019 46.1324 140.381 46.1324C141.744 46.1324 142.65 45.0895 142.65 43.5471C142.65 42.0047 141.744 40.9706 140.381 40.9706Z" fill="#001954"/>
<path d="M145.675 46.0448H148.62V46.8861H144.769V40.2081H145.675V46.0448Z" fill="#001954"/>
<path d="M152.084 47C150.194 47 148.875 45.5803 148.875 43.5471C148.875 41.5139 150.203 40.0942 152.093 40.0942C153.984 40.0942 155.32 41.5139 155.32 43.5471C155.32 45.5803 153.984 47 152.084 47ZM152.093 40.9706C150.73 40.9706 149.833 41.9959 149.833 43.5471C149.833 45.0983 150.73 46.1324 152.093 46.1324C153.456 46.1324 154.362 45.0895 154.362 43.5471C154.362 42.0047 153.456 40.9706 152.093 40.9706Z" fill="#001954"/>
<path d="M157.026 43.5909C157.026 45.2034 157.967 46.1412 159.347 46.1412C160.49 46.1412 161.404 45.5628 161.404 44.2131V44.0203H159.162V43.2141H162.257V46.8948H161.501L161.44 45.9922C161.079 46.5706 160.261 47 159.285 47C157.386 47 156.076 45.6329 156.076 43.5734C156.076 41.5139 157.395 40.1029 159.365 40.1029C160.824 40.1029 161.967 40.9443 162.187 42.2238H161.22C160.974 41.3737 160.226 40.953 159.338 40.953C157.896 40.953 157.026 42.0134 157.026 43.5909Z" fill="#001954"/>
<path d="M164.464 46.8861H163.559V40.2081H164.464V46.8861Z" fill="#001954"/>
<path d="M166.029 46.8861V40.2081H170.118V41.0407H166.944V43.1264H169.81V43.9327H166.944V46.0448H170.118V46.8861H166.029Z" fill="#001954"/>
<path d="M173.353 40.0942C174.628 40.0942 175.455 40.804 175.534 41.9609H174.62C174.576 41.2948 174.101 40.9092 173.353 40.9092C172.509 40.9092 171.964 41.3299 171.964 41.9871C171.964 42.5217 172.272 42.846 172.896 42.995L173.995 43.2579C175.086 43.5033 175.648 44.0992 175.648 45.0369C175.648 46.2376 174.716 47 173.283 47C171.85 47 171.015 46.2901 170.962 45.1421H171.885C171.903 45.7819 172.439 46.185 173.283 46.185C174.171 46.185 174.734 45.7731 174.734 45.107C174.734 44.5812 174.444 44.2482 173.811 44.0992L172.712 43.8538C171.621 43.6084 171.05 42.9775 171.05 42.0134C171.05 40.8654 171.973 40.0942 173.353 40.0942Z" fill="#001954"/>
<path d="M176 36.8077H105.818V37.1408H176V36.8077Z" fill="#001954"/>
<path d="M31.5476 17.6064C28.9011 17.6064 26.7557 19.7447 26.7557 22.3826C26.7557 25.0205 28.9011 27.1589 31.5476 27.1589C34.1942 27.1589 36.3395 25.0205 36.3395 22.3826C36.3395 19.7447 34.1942 17.6064 31.5476 17.6064Z" fill="#001954"/>
<path d="M70.2171 20.7L66.2869 19.7798C64.4317 19.3416 63.4645 18.5441 63.4645 17.3172C63.4645 15.6871 64.7042 14.7231 66.8232 14.7231C68.9422 14.7231 70.138 15.915 70.182 17.7554H75.2992C75.2553 13.5312 71.9405 10.7181 67.043 10.7181C62.1456 10.7181 58.3912 13.2683 58.3912 17.5363C58.3912 21.0155 60.2904 22.8646 64.2206 23.741L68.1509 24.6612C70.094 25.0994 70.6656 25.8969 70.6656 26.9924C70.6656 28.5786 69.2939 29.5864 66.7793 29.5864C64.2646 29.5864 62.893 28.3946 62.849 26.5104H57.7318C57.7318 30.7783 61.1784 33.6791 66.6034 33.6791C72.0284 33.6791 75.7388 30.9536 75.7388 26.5542C75.7388 23.2064 73.8836 21.5413 70.2171 20.7Z" fill="#001954"/>
<path d="M92.6908 10.7093C89.376 10.7093 86.5096 12.1641 85.182 14.6705L84.8303 11.3666H79.8449V46.9912H85.2347V30.1999C86.6064 32.3996 89.4288 33.6791 92.6996 33.6791C99.1885 33.6791 102.899 28.7539 102.899 21.9707C102.899 15.1876 98.8368 10.7093 92.6996 10.7093H92.6908ZM91.4071 28.8415C87.6966 28.8415 85.2699 26.1598 85.2699 22.2424C85.2699 18.325 87.6966 15.5995 91.4071 15.5995C95.1175 15.5995 97.4563 18.3688 97.4563 22.2424C97.4563 26.116 95.2055 28.8415 91.4071 28.8415Z" fill="#001954"/>
<path d="M116.571 10.7093C110.654 10.7093 106.768 13.7854 106.768 18.5003H111.357C111.357 16.2129 113.125 14.8896 116.299 14.8896C119.033 14.8896 120.8 16.0815 120.8 19.0261V19.5081L114.268 19.9901C109.106 20.3845 106.187 22.8909 106.187 26.8959C106.187 30.901 109.01 33.6703 113.652 33.6703C117.055 33.6703 120.009 32.1279 120.941 29.8844L121.337 33.1007H126.058V19.9025C126.058 13.873 122.436 10.7093 116.563 10.7093H116.571ZM120.853 24.3106C120.853 27.6584 118.734 29.639 115.419 29.639C112.993 29.639 111.665 28.675 111.665 26.6944C111.665 24.9329 112.949 23.8374 116.299 23.5219L120.844 23.1713V24.3194L120.853 24.3106Z" fill="#001954"/>
<path d="M141.032 28.8415C137.585 28.8415 135.466 26.2913 135.466 22.1986C135.466 18.1059 137.761 15.5119 141.208 15.5119C143.767 15.5119 145.578 16.7914 146.193 19.254H151.583C151.012 14.0132 146.949 10.7181 140.988 10.7181C134.543 10.7181 130.085 15.468 130.085 22.2074C130.085 28.9467 134.411 33.6966 141.032 33.6966C146.73 33.6966 150.968 30.2174 151.627 25.1607H146.193C145.622 27.5357 143.723 28.859 141.032 28.859V28.8415Z" fill="#001954"/>
<path d="M171.015 26.0722C170.399 28.1404 168.456 29.2885 165.493 29.2885C161.914 29.2885 159.883 27.3517 159.488 23.5219L175.912 23.4781V21.848C175.912 15.0737 171.762 10.7181 165.229 10.7181C158.696 10.7181 154.37 15.4242 154.37 22.2512C154.37 29.0781 158.916 33.6966 165.405 33.6966C171.103 33.6966 175.077 30.8397 176 26.0809H171.015V26.0722ZM165.273 15.1175C168.5 15.1175 170.575 17.0981 170.575 20.0865H159.628C160.156 16.8264 162.099 15.1175 165.282 15.1175H165.273Z" fill="#001954"/>
<path d="M16.4508 12.7425H16.3629C15.9145 12.0414 15.1583 11.4104 14.0856 10.8583C13.0129 10.3062 11.8611 10.0345 10.6214 10.0345C7.31538 10.0345 4.72159 11.13 2.83119 13.3209C0.9408 15.5118 0 18.4302 0 22.0671C0 25.7041 0.861668 28.2631 2.57621 30.1999C4.29075 32.1367 6.55043 33.1095 9.35525 33.1095C10.9115 33.1095 12.2656 32.829 13.4262 32.2594C14.5868 31.6897 15.5716 30.8484 16.3541 29.7091H16.442V32.5661H23.2562V29.2183C21.7087 27.3604 20.7767 24.9767 20.7767 22.3739C20.7767 19.771 21.7087 17.3873 23.2562 15.5294V0H16.442V12.7425H16.4508ZM16.5827 21.8743C16.5827 23.6621 16.1343 25.1081 15.2374 26.1949C14.3406 27.2816 13.1712 27.8249 11.738 27.8249C10.2257 27.8249 9.04751 27.3078 8.20343 26.2737C7.35934 25.2396 6.92851 23.7761 6.92851 21.8656C6.92851 19.8324 7.36814 18.2286 8.24739 17.063C9.12664 15.8974 10.3488 15.3103 11.9139 15.3103C13.3119 15.3103 14.4373 15.7748 15.299 16.7037C16.1607 17.6327 16.5915 18.807 16.5915 20.2092V21.8656L16.5827 21.8743Z" fill="#FB991A"/>
<path d="M49.3525 28.0089C49.0272 28.1141 48.7106 28.1667 48.3941 28.1667C47.8665 28.1667 47.4533 27.9914 47.1543 27.6496C46.8554 27.3078 46.7147 26.7995 46.7147 26.1247V15.5732H52.0166V10.5691H46.7147V0.122681H39.9708L39.9269 10.5691H36.3483V12.7775C37.72 13.4611 38.9245 14.4076 39.8917 15.5819H39.9269V15.6345C41.4216 17.4749 42.3272 19.8236 42.3272 22.3826C42.3272 24.7576 41.5447 26.9398 40.2434 28.71C40.5424 29.7967 41.0435 30.6819 41.7645 31.3742C42.9867 32.531 44.8595 33.1182 47.3917 33.1182C48.5524 33.1182 49.6338 32.9254 50.6274 32.531C51.6209 32.1367 52.4562 31.6284 53.1245 31.0149L50.39 27.3604C50.0295 27.6934 49.6866 27.9125 49.3701 28.0177L49.3525 28.0089Z" fill="#FB991A"/>
</g>
<defs>
<clipPath id="clip0_7_6">
<rect width="176" height="47" fill="white"/>
</clipPath>
</defs>
</svg>
